<?xml version="1.0" encoding="UTF-8" standalone="no"?>
<!-- Created with Inkscape (http://www.inkscape.org/) -->

<svg
   xmlns:osb="http://www.openswatchbook.org/uri/2009/osb"
   xmlns:dc="http://purl.org/dc/elements/1.1/"
   xmlns:cc="http://creativecommons.org/ns#"
   xmlns:rdf="http://www.w3.org/1999/02/22-rdf-syntax-ns#"
   xmlns:svg="http://www.w3.org/2000/svg"
   xmlns="http://www.w3.org/2000/svg"
   xmlns:sodipodi="http://sodipodi.sourceforge.net/DTD/sodipodi-0.dtd"
   xmlns:inkscape="http://www.inkscape.org/namespaces/inkscape"
   width="114.17502mm"
   height="98.74617mm"
   viewBox="0 0 114.17502 98.74617"
   version="1.1"
   id="svg6806"
   inkscape:version="0.92.2 5c3e80d, 2017-08-06"
   sodipodi:docname="roseicon.svg">
  <defs
     id="defs6800">
    <marker
       inkscape:stockid="Arrow2Lstart"
       orient="auto"
       refY="0"
       refX="0"
       id="Arrow2Lstart"
       style="overflow:visible"
       inkscape:isstock="true">
      <path
         id="path8972"
         style="fill-rule:evenodd;stroke-width:0.625;stroke-linejoin:round"
         d="M 8.7185878,4.0337352 -2.2072895,0.01601326 8.7185884,-4.0017078 c -1.7454984,2.3720609 -1.7354408,5.6174519 -6e-7,8.035443 z"
         transform="matrix(1.1,0,0,1.1,1.1,0)"
         inkscape:connector-curvature="0" />
    </marker>
    <linearGradient
       id="linearGradient8918"
       osb:paint="solid">
      <stop
         style="stop-color:#800000;stop-opacity:1;"
         offset="0"
         id="stop8916" />
    </linearGradient>
    <filter
       inkscape:collect="always"
       style="color-interpolation-filters:sRGB"
       id="filter2986"
       x="-0.012725496"
       width="1.0254509"
       y="-0.011352765"
       height="1.0227056">
      <feGaussianBlur
         inkscape:collect="always"
         stdDeviation="0.44917066"
         id="feGaussianBlur2988" />
    </filter>
  </defs>
  <sodipodi:namedview
     id="base"
     pagecolor="#ffffff"
     bordercolor="#666666"
     borderopacity="1.0"
     inkscape:pageopacity="0.0"
     inkscape:pageshadow="2"
     inkscape:zoom="1.1438552"
     inkscape:cx="94.546336"
     inkscape:cy="184.13116"
     inkscape:document-units="mm"
     inkscape:current-layer="layer1"
     showgrid="false"
     inkscape:object-nodes="false"
     inkscape:window-width="1440"
     inkscape:window-height="855"
     inkscape:window-x="0"
     inkscape:window-y="1"
     inkscape:window-maximized="1" />
  <metadata
     id="metadata6803">
    <rdf:RDF>
      <cc:Work
         rdf:about="">
        <dc:format>image/svg+xml</dc:format>
        <dc:type
           rdf:resource="http://purl.org/dc/dcmitype/StillImage" />
        <dc:title />
      </cc:Work>
    </rdf:RDF>
  </metadata>
  <g
     inkscape:label="Layer 1"
     inkscape:groupmode="layer"
     id="layer1"
     style="display:inline"
     transform="translate(-30.557288,-85.387083)">
    <g
       id="g163"
       style="display:inline;opacity:1;fill:none;fill-opacity:1;stroke:#000000"
       transform="translate(1.8504673,2.0817757)">
      <path
         inkscape:connector-curvature="0"
         id="path6808"
         d="m 83.404209,127.55112 c -4.765052,-2.99757 -0.866231,-8.94905 3.950889,-6.40028 5.196003,-0.24334 6.994682,9.3833 0.409084,8.10186 -1.591108,-0.003 -3.251178,-0.51201 -4.359973,-1.70158 z"
         style="display:inline;fill:none;fill-opacity:1;stroke:#000000;stroke-width:0.26458332px;stroke-linecap:butt;stroke-linejoin:miter;stroke-opacity:1" />
      <path
         inkscape:connector-curvature="0"
         id="path6810"
         d="m 83.404209,127.55112 c -5.378931,1.67925 -10.76711,-3.32053 -8.323048,-8.7324 2.995444,-3.4196 10.562268,-5.43891 13.609456,-1.04695 3.211594,4.63741 -3.479291,6.39471 -5.286408,9.77935 z"
         style="display:inline;fill:none;fill-opacity:1;stroke:#000000;stroke-width:0.26458332px;stroke-linecap:butt;stroke-linejoin:miter;stroke-opacity:1" />
      <path
         inkscape:connector-curvature="0"
         id="path6812"
         d="m 89.284139,117.39487 c 3.229239,2.57388 7.663937,10.01095 2.849474,12.57766 -4.120995,1.2795 -7.983725,2.54759 -11.88157,4.12748 -3.659049,3.34965 -8.095012,-0.0119 -5.43475,-4.49708 2.149837,-1.84448 1.092312,-4.32109 4.985279,-2.76892 1.195591,0.2608 2.378969,0.60246 3.601637,0.71711"
         style="display:inline;fill:none;fill-opacity:1;stroke:#000000;stroke-width:0.26458332px;stroke-linecap:butt;stroke-linejoin:miter;stroke-opacity:1" />
      <path
         inkscape:connector-curvature="0"
         id="path6814"
         d="m 72.713428,130.75835 c -5.156196,-2.22046 -6.266433,-9.25503 -3.744488,-13.58677 2.571334,-4.67224 8.2118,-6.00723 13.14668,-5.98784 3.29986,3.0167 8.193743,3.06481 11.039964,6.30732 2.371287,4.27113 6.135903,4.66732 5.629655,10.21814 -0.722412,2.0575 -2.887539,2.12116 -4.690307,1.98006"
         style="display:inline;fill:none;fill-opacity:1;stroke:#000000;stroke-width:0.26458332px;stroke-linecap:butt;stroke-linejoin:miter;stroke-opacity:1" />
      <path
         inkscape:connector-curvature="0"
         id="path6816"
         d="m 94.62953,118.99849 c -0.316736,-2.00409 1.162352,-8.18449 1.745116,-2.76477 2.313409,4.06338 9.041564,1.38799 10.954654,6.42877 1.12146,5.27889 -5.46937,5.22672 -8.345254,8.28517 -4.07718,2.97514 -11.81218,5.20056 -14.87878,-0.24726 -0.49801,-0.97541 -0.596045,-2.08012 -0.701047,-3.14928"
         style="display:inline;fill:none;fill-opacity:1;stroke:#000000;stroke-width:0.26458332px;stroke-linecap:butt;stroke-linejoin:miter;stroke-opacity:1" />
      <path
         inkscape:connector-curvature="0"
         id="path6818"
         d="m 94.094987,129.68927 c 2.852277,0.88505 11.634923,-0.39881 6.153553,4.06108 -3.188146,5.81273 -9.680868,4.08383 -15.028463,4.98162 -5.103634,1.0046 -11.413804,0.0423 -13.588992,-5.3616 -0.734114,-1.47831 -1.549903,-3.07159 -1.590353,-4.75022"
         style="display:inline;fill:none;fill-opacity:1;stroke:#000000;stroke-width:0.26458332px;stroke-linecap:butt;stroke-linejoin:miter;stroke-opacity:1" />
      <path
         inkscape:connector-curvature="0"
         id="path6820"
         d="m 72.713428,130.75835 c -0.949182,2.44573 0.150622,9.74665 -2.978446,4.88128 -3.21581,-4.20043 -6.6739,-5.80702 -6.460698,-11.19309 -0.04511,-5.36438 -3.525219,-12.88385 0.484786,-16.75395 4.510098,-1.91887 9.34946,-5.25489 14.390923,-3.03018 3.118518,2.06941 8.220181,3.74635 7.392372,8.45615"
         style="display:inline;fill:none;fill-opacity:1;stroke:#000000;stroke-width:0.26458332px;stroke-linecap:butt;stroke-linejoin:miter;stroke-opacity:1" />
      <path
         inkscape:connector-curvature="0"
         id="path6822"
         d="m 85.542365,113.11856 c -1.318037,-4.22217 -5.414393,-11.88188 2.684738,-10.72696 5.171877,0.23778 10.537794,-0.56326 15.568237,0.79282 5.55776,1.49719 9.85131,5.92117 11.62416,11.37572 2.12684,4.9857 1.30361,10.78163 -1.74703,15.18329 -1.55071,3.1463 -5.68863,8.51645 -6.74854,9.03297 -3.85791,3.63228 -5.49628,5.46361 -8.615887,8.57463 -2.876242,2.72731 -4.977569,6.54652 -8.494637,7.13065 -5.571883,4.42111 -4.749821,-6.54632 -0.909874,-8.40622 2.318563,-3.40719 7.210622,-5.5293 8.054093,-9.68698 -0.915072,0.14928 -1.59741,0.82012 -2.328095,1.31884"
         style="display:inline;fill:none;fill-opacity:1;stroke:#000000;stroke-width:0.26458332px;stroke-linecap:butt;stroke-linejoin:miter;stroke-opacity:1" />
      <path
         inkscape:connector-curvature="0"
         id="path6824"
         d="m 87.145981,147.32906 c -0.436752,2.98537 -0.554128,12.22765 -5.174813,6.8861 -4.213528,-1.96291 -7.735098,-4.91628 -11.522646,-7.3905 -4.680669,-2.90943 -9.092181,-7.00744 -11.021933,-12.26947 0.395295,-4.51195 0.206848,-9.72071 1.8597,-13.95423 2.230787,3.96497 -1.592646,12.12038 4.047987,15.2257 5.359114,3.14119 8.666781,8.48962 12.770734,12.9687 4.51023,2.60811 5.742611,6.25515 8.889742,9.96375 -0.645697,-2.53412 -2.43581,6.45897 -5.662157,3.53708 -5.020259,0.92616 -11.203376,-0.6879 -13.197699,-4.6368 -3.578708,-2.16775 -6.556387,-5.65724 -6.123123,-10.26514 0.303005,-3.75049 -2.159346,-9.30064 3.964637,-8.61828 1.88919,-0.29808 3.931553,-0.14665 5.667947,-1.06858"
         style="display:inline;fill:none;fill-opacity:1;stroke:#000000;stroke-width:0.26458332px;stroke-linecap:butt;stroke-linejoin:miter;stroke-opacity:1" />
      <path
         inkscape:connector-curvature="0"
         id="path6826"
         d="m 83.938749,162.29616 c -3.966453,1.86876 -4.708688,6.13241 0.577946,4.27908 5.367066,-3.15471 10.030088,-7.59269 15.960705,-9.85109 7.3952,-2.28326 15.37852,0.69654 22.6949,-1.72868 7.32199,-1.33814 0.0393,-11.43694 6.06226,-12.47747 5.16452,1.10821 8.76073,-5.77975 10.10806,-10.0724 1.58735,-5.05295 -3.77841,-9.02424 -4.67379,-12.49318 -0.46321,1.62134 -1.71451,-4.61794 -3.54174,-4.93371 -0.82781,-2.22673 -5.37407,-5.98588 -5.65846,-10.91604 -1.77934,-4.160151 -10.47796,-0.11703 -9.64162,-6.650268 -0.81267,-3.943334 -7.64385,-3.683575 -6.97314,0.742073 -1.09794,1.643301 -2.75245,2.784575 -4.0681,4.233025"
         style="display:inline;fill:none;fill-opacity:1;stroke:#000000;stroke-width:0.26458332px;stroke-linecap:butt;stroke-linejoin:miter;stroke-opacity:1" />
      <path
         inkscape:connector-curvature="0"
         id="path6828"
         d="m 104.78577,102.42778 c -3.71991,-1.6749 -5.388917,-5.844314 -9.355221,-8.03961 -2.866232,-3.055497 -6.181089,-2.814987 -8.665704,0.05064 -2.918542,-1.09632 -9.132003,0.247968 -9.330858,0.70284 -1.07593,1.575163 -5.801304,5.31291 -7.011477,7.62316 -1.485663,0.50776 -1.551314,3.29248 -1.450912,2.87021"
         style="display:inline;fill:none;fill-opacity:1;stroke:#000000;stroke-width:0.26458332px;stroke-linecap:butt;stroke-linejoin:miter;stroke-opacity:1" />
      <path
         inkscape:connector-curvature="0"
         id="path6832"
         d="m 64.160804,154.27807 c -4.529074,-2.16602 -9.277553,-4.95869 -10.807138,-10.07469 -2.598744,-7.30115 -2.281993,-15.15561 -1.419774,-22.74225 0.502977,-4.76658 1.227346,-10.11767 4.74335,-13.68796"
         style="display:inline;fill:none;fill-opacity:1;stroke:#000000;stroke-width:0.26458332px;stroke-linecap:butt;stroke-linejoin:miter;stroke-opacity:1" />
      <path
         inkscape:connector-curvature="0"
         id="path6834"
         d="m 56.677255,107.77317 c 4.098132,-0.71272 8.196267,-1.42543 12.294399,-2.13815"
         style="display:inline;fill:none;fill-opacity:1;stroke:#000000;stroke-width:0.26458332px;stroke-linecap:butt;stroke-linejoin:miter;stroke-opacity:1" />
      <path
         inkscape:connector-curvature="0"
         id="path6836"
         d="m 68.971654,105.63502 c 1.759761,-3.95022 3.467838,-11.990514 -3.61553,-10.188511 -3.44306,0.02874 -7.179066,0.856675 -9.719473,1.355883 -4.675321,2.144822 -7.571746,7.384328 -11.121267,11.148038 -1.1734,2.85041 3.528357,6.21669 -1.018183,8.58054 -2.32941,3.65161 -3.897584,8.14123 -4.952567,12.45019 -0.671648,4.94542 3.738629,8.07975 7.803605,9.6225 0.843268,-0.37776 -0.730713,-0.44516 0.172776,-0.36176"
         style="display:inline;fill:none;fill-opacity:1;stroke:#000000;stroke-width:0.26458332px;stroke-linecap:butt;stroke-linejoin:miter;stroke-opacity:1" />
      <path
         inkscape:connector-curvature="0"
         id="path6838"
         d="m 47.579349,140.35858 c 1.163361,-2.63398 2.925419,-0.68854 0,0 -1.231825,5.01028 -2.942046,10.53338 0.29949,15.20516 1.816786,5.14848 -0.590089,11.67006 4.061928,15.71301 4.402838,1.66507 7.571416,5.9749 12.602395,6.05103 4.690583,-1.00688 9.586536,-7.0803 14.375751,-2.46702 3.766809,2.37863 5.851657,8.41717 11.404426,5.90914 4.854239,-1.61385 5.965821,-7.16441 9.183755,-9.54171 1.348536,-1.50059 1.408576,0.32479 2.238746,-2.05828 3.19389,0.80302 1.47742,-6.1944 -2.569205,-4.64035 -3.969815,1.05071 -2.560505,-2.76459 -3.293017,-4.13491 -1.316485,1.34433 -2.51311,2.77927 -3.937531,4.01821"
         style="display:inline;fill:none;fill-opacity:1;stroke:#000000;stroke-width:0.26458332px;stroke-linecap:butt;stroke-linejoin:miter;stroke-opacity:1" />
      <path
         inkscape:connector-curvature="0"
         id="path6840"
         d="m 47.590093,162.29616 c -3.821766,-2.8073 -6.294694,-7.28435 -10.431116,-9.20659 -3.330083,-3.00435 -6.556673,-6.80921 -7.003735,-11.07215 -0.19539,-2.59505 6.416763,-1.65873 3.048745,-4.76231 -6.487179,0.61078 -4.717257,-7.59041 -1.288249,-9.71286 2.998779,-2.04025 6.365001,-2.37739 8.725349,-4.80202"
         style="display:inline;fill:none;fill-opacity:1;stroke:#000000;stroke-width:0.26458332px;stroke-linecap:butt;stroke-linejoin:miter;stroke-opacity:1" />
      <path
         inkscape:connector-curvature="0"
         id="path6844"
         d="m 40.641084,122.74027 c -6.447357,0.64472 -4.198108,-8.61688 -5.73822,-12.50392 -1.339693,-5.8146 0.548676,-14.269414 8.19155,-12.70764 2.021847,-1.05866 8.326978,0.09757 7.639653,-1.378689 0.83266,0.858176 3.340537,-4.772366 4.782677,-4.759021 3.259975,-3.639895 8.369039,-4.32468 12.583678,-6.227912 4.505871,-2.297032 9.763969,0.44383 12.923372,2.807669 0.990103,5.331969 5.593716,7.062872 10.627172,5.49438 0.635366,-0.0584 1.272815,-0.08566 1.909486,-0.124515"
         style="display:inline;fill:none;fill-opacity:1;stroke:#000000;stroke-width:0.26458332px;stroke-linecap:butt;stroke-linejoin:miter;stroke-opacity:1" />
      <g
         style="opacity:1;fill:none;fill-opacity:1;stroke:#000000;stroke-width:1.60000002;stroke-linecap:round;stroke-linejoin:bevel;stroke-miterlimit:4;stroke-dasharray:none;stroke-dashoffset:0;stroke-opacity:1;paint-order:stroke fill markers"
         id="g6913">
        <path
           style="fill:none;fill-opacity:1;stroke:#000000;stroke-width:1.60000002;stroke-linecap:round;stroke-linejoin:bevel;stroke-miterlimit:4;stroke-dasharray:none;stroke-dashoffset:0;stroke-opacity:1;paint-order:stroke fill markers"
           d="m 84.991709,127.55112 c 2.443512,-2.04035 4.058189,-4.08071 5.533588,-6.12106 -2.422667,-0.0106 -6.296948,-0.55604 -7.181548,0 -0.49619,0.80033 -1.534586,0.95758 1.64796,6.12106 1.172018,1.97275 3.621344,1.7315 6.100551,1.43846 1.845974,-0.35801 2.970451,-1.36407 2.501718,-2.96845 -0.27505,-2.11221 -2.189757,-3.25527 -3.068681,-4.59107 1.286974,-1.28928 0.900252,-2.65825 0.34634,-4.03519 v 0 c -1.105832,-1.51343 -1.380899,-1.60363 -2.472243,-1.77066 -3.032743,-0.0303 -6.037778,-0.9871 -9.15398,1.06908 -0.966891,0.44501 -1.93331,0.8908 -2.639287,1.77067 -1.262153,3.68169 -0.657576,5.30852 1.403164,7.88444 1.747875,1.19785 4.601494,0.87531 6.982418,1.20272"
           id="path6847"
           inkscape:connector-curvature="0"
           sodipodi:nodetypes="cccccccccccccc" />
        <path
           style="fill:none;fill-opacity:1;stroke:#000000;stroke-width:1.60000002;stroke-linecap:round;stroke-linejoin:bevel;stroke-miterlimit:4;stroke-dasharray:none;stroke-dashoffset:0;stroke-opacity:1;paint-order:stroke fill markers"
           d="m 90.871637,117.39487 c 2.158913,1.00352 7.571589,9.51073 4.810852,12.2944 0,0 -6.50506,3.461 -10.156242,1.60362 -0.903209,-1.42851 -1.056679,-2.66959 -0.534538,-3.74177"
           id="path6849"
           inkscape:connector-curvature="0"
           sodipodi:nodetypes="cccc" />
        <path
           style="fill:none;fill-opacity:1;stroke:#000000;stroke-width:1.60000002;stroke-linecap:round;stroke-linejoin:bevel;stroke-miterlimit:4;stroke-dasharray:none;stroke-dashoffset:0;stroke-opacity:1;paint-order:stroke fill markers"
           d="m 76.806578,124.87842 c 2.989762,2.67873 -5.62939,3.09324 -0.434311,9.88898 2.559855,2.47596 9.760396,-3.31559 9.15398,-3.47451 2.151081,0.84502 0.348752,1.12527 6.94901,2.60588 5.511212,-0.63847 6.326391,-2.36064 9.488063,-3.54132 3.83,-2.04912 8.85222,-4.02598 7.08265,-6.41447 l -4.07586,-5.21176 c -2.85081,-3.11864 -5.134435,-5.1792 -7.951274,-3.67495 -0.524798,0.67025 -0.978852,1.51736 -0.801806,3.94222"
           id="path6851"
           inkscape:connector-curvature="0"
           sodipodi:nodetypes="ccccccccc" />
        <path
           style="fill:none;fill-opacity:1;stroke:#000000;stroke-width:1.60000002;stroke-linecap:round;stroke-linejoin:bevel;stroke-miterlimit:4;stroke-dasharray:none;stroke-dashoffset:0;stroke-opacity:1;paint-order:stroke fill markers"
           d="m 95.682487,129.68927 c 3.493516,0.12737 3.6737,-0.64295 4.877673,-1.13589 0.80516,-1.84861 -0.20826,-3.69723 -0.935445,-5.54584 -1.439832,-2.70544 -5.09433,-5.65198 -9.554885,-8.68626 -4.444049,-2.20726 -9.062295,-3.97111 -15.434815,-1.26954 -6.10504,4.06936 -3.87472,9.96844 -3.006783,15.56846 0.906017,3.80492 3.021305,4.46573 4.744035,6.1472"
           id="path6853"
           inkscape:connector-curvature="0"
           sodipodi:nodetypes="ccccccc" />
        <path
           style="fill:none;fill-opacity:1;stroke:#000000;stroke-width:1.60000002;stroke-linecap:round;stroke-linejoin:bevel;stroke-miterlimit:4;stroke-dasharray:none;stroke-dashoffset:0;stroke-opacity:1;paint-order:stroke fill markers"
           d="m 71.628232,128.6202 c 0.406289,3.99284 2.589509,7.17798 5.762392,9.91328 5.785203,1.95565 11.583261,-1.52695 17.786971,-3.09398 5.132925,-2.06691 6.606875,-3.4888 8.954845,-5.88295 -4.338802,5.92417 -7.517048,11.84834 -15.398959,17.77251 -1.795098,3.30759 -1.779062,5.81023 -1.326489,8.11885"
           id="path6857"
           inkscape:connector-curvature="0"
           sodipodi:nodetypes="cccccc" />
        <path
           style="fill:none;fill-opacity:1;stroke:#000000;stroke-width:1.60000002;stroke-linecap:round;stroke-linejoin:bevel;stroke-miterlimit:4;stroke-dasharray:none;stroke-dashoffset:0;stroke-opacity:1;paint-order:stroke fill markers"
           d="m 87.406992,155.44791 c -10.771563,-8.18346 -21.191573,-16.26516 -22.584076,-21.73363 -1.610646,-4.53139 -1.298945,-8.23891 -1.212768,-12.04309 -1.47375,3.52586 -4.30739,4.39375 -0.53454,18.17433 1.595966,4.5701 15.836262,12.58062 25.123335,19.2434"
           id="path6859"
           inkscape:connector-curvature="0"
           sodipodi:nodetypes="ccccc" />
        <path
           style="fill:none;fill-opacity:1;stroke:#000000;stroke-width:1.60000002;stroke-linecap:round;stroke-linejoin:bevel;stroke-miterlimit:4;stroke-dasharray:none;stroke-dashoffset:0;stroke-opacity:1;paint-order:stroke fill markers"
           d="m 75.87872,137.06882 c -4.707553,-5.12616 -11.273741,-9.80738 -12.268572,-15.39763 -1.618845,-6.05021 -0.101607,-9.81964 0.929285,-13.94277 1.70022,-5.5516 11.100331,-5.62166 16.725448,-2.55134 3.968425,2.47937 4.830064,5.21765 5.864984,7.94148"
           id="path6861"
           inkscape:connector-curvature="0"
           sodipodi:nodetypes="ccccc" />
        <path
           style="fill:none;fill-opacity:1;stroke:#000000;stroke-width:1.60000002;stroke-linecap:round;stroke-linejoin:bevel;stroke-miterlimit:4;stroke-dasharray:none;stroke-dashoffset:0;stroke-opacity:1;paint-order:stroke fill markers"
           d="m 80.697916,104.51562 c 2.177822,-5.19992 17.172293,-4.75458 25.675354,-2.08784 10.64351,1.74808 12.77241,18.32912 11.27182,20.79766 -2.45524,5.80475 -4.93428,10.39222 -8.31548,14.55209 -7.30754,7.50882 -14.615079,11.95826 -21.922618,17.67038 l 0.791951,3.64101 c -0.963265,1.4585 -2.014614,2.61017 -3.107171,3.61831 -1.092558,1.00813 -2.226324,1.87272 -3.354422,2.75705 3.896271,0.21184 7.337118,-1.39802 10.737903,-3.16812 3.835265,-2.50933 7.600287,-4.80793 11.184717,-6.56476 2.60748,-1.39204 13.06504,-0.0135 19.65476,0 8.32674,0.77228 3.64655,-8.21065 5.38616,-12.37872 -0.36938,-2.31877 4.09299,-0.78716 6.00295,-1.36901 6.93826,-2.5068 7.50233,-8.12235 7.35941,-13.6766 C 137.95076,119.22235 130.05502,112.5478 127,102.90922 c -1.21422,-3.108743 -4.5429,-1.9591 -8.33233,-1.01598 -2.03777,0.36339 -0.71153,-5.931434 -2.43999,-6.732527 -7.93642,-2.633744 -7.08431,4.285255 -9.85441,7.267067"
           id="path6863"
           inkscape:connector-curvature="0"
           sodipodi:nodetypes="ccccccsccccccccccc" />
        <path
           style="fill:none;fill-opacity:1;stroke:#000000;stroke-width:1.60000002;stroke-linecap:round;stroke-linejoin:bevel;stroke-miterlimit:4;stroke-dasharray:none;stroke-dashoffset:0;stroke-opacity:1;paint-order:stroke fill markers"
           d="m 106.37327,102.42778 c -3.50522,-3.186757 -5.68787,-7.25522 -11.225318,-9.08716 -5.69467,-1.753256 -11.215261,-1.214757 -14.639026,0.1192 -2.627966,1.305079 -5.958119,5.228295 -8.343373,9.62386"
           id="path6865"
           inkscape:connector-curvature="0"
           sodipodi:nodetypes="cccc" />
        <path
           style="fill:none;fill-opacity:1;stroke:#000000;stroke-width:1.60000002;stroke-linecap:round;stroke-linejoin:bevel;stroke-miterlimit:4;stroke-dasharray:none;stroke-dashoffset:0;stroke-opacity:1;paint-order:stroke fill markers"
           d="m 71.363744,103.08368 c -0.05568,-2.7766 2.216445,-6.671294 -0.270051,-7.73854 -10.752591,-4.91539 -29.763085,13.70267 -24.054256,16.16981 0.889608,0.13686 0.878384,2.49187 -0.642861,4.43445 -0.788763,0.95669 -1.669849,2.0033 -3.098914,3.58363 -1.727147,2.25102 -3.022094,5.04228 -3.741772,8.55263 0.241124,4.7116 2.611372,7.20023 5.612265,9.03041 2.108869,1.01872 3.911877,1.50447 5.38616,1.41741"
           id="path6867"
           inkscape:connector-curvature="0"
           sodipodi:nodetypes="cccccccc" />
        <path
           style="fill:none;fill-opacity:1;stroke:#000000;stroke-width:1.60000002;stroke-linecap:round;stroke-linejoin:bevel;stroke-miterlimit:4;stroke-dasharray:none;stroke-dashoffset:0;stroke-opacity:1;paint-order:stroke fill markers"
           d="m 65.481032,105.63502 c -3.303694,-0.0433 -8.670913,2.42564 -9.488068,5.61266 -2.864634,4.67092 -6.228783,36.28002 9.087164,42.09495"
           id="path6869"
           inkscape:connector-curvature="0"
           sodipodi:nodetypes="ccc" />
        <path
           style="fill:none;fill-opacity:1;stroke:#000000;stroke-width:1.60000002;stroke-linecap:round;stroke-linejoin:bevel;stroke-miterlimit:4;stroke-dasharray:none;stroke-dashoffset:0;stroke-opacity:1;paint-order:stroke fill markers"
           d="m 63.075608,139.8212 c -0.002,3.86126 -0.6209,7.70708 1.737251,13.25416 3.340869,4.4696 6.681738,6.20239 10.022607,9.08716 4.315972,1.5493 7.898394,1.30078 10.793382,0.008"
           id="path6871"
           inkscape:connector-curvature="0"
           sodipodi:nodetypes="cccc" />
        <path
           style="fill:none;fill-opacity:1;stroke:#000000;stroke-width:1.60000002;stroke-linecap:round;stroke-linejoin:bevel;stroke-miterlimit:4;stroke-dasharray:none;stroke-dashoffset:0;stroke-opacity:1;paint-order:stroke fill markers"
           d="m 54.122079,135.1683 c -2.278124,1.85619 -4.636822,3.33635 -5.879931,10.02261 0.550706,4.14268 1.501495,6.28083 1.469984,9.35443 -0.42399,6.64955 1.549015,13.1781 3.207233,16.70434 1.659147,3.35952 4.294154,6.17689 12.294399,6.01357 3.747559,0.36848 7.611698,-4.64061 12.02713,-4.27631 4.890348,-1.37607 8.337254,10.51793 12.428032,7.88445 5.009665,0.25393 10.576624,-9.46194 15.902534,-12.2944 0.79243,-2.80278 -0.22866,-3.15566 -8.018083,-4.54358 -0.949742,0.24124 -0.590719,-2.57131 -0.534541,-4.67722"
           id="path6873"
           inkscape:connector-curvature="0"
           sodipodi:nodetypes="cccccccccc" />
        <path
           style="fill:none;fill-opacity:1;stroke:#000000;stroke-width:1.60000002;stroke-linecap:round;stroke-linejoin:bevel;stroke-miterlimit:4;stroke-dasharray:none;stroke-dashoffset:0;stroke-opacity:1;paint-order:stroke fill markers"
           d="M 50.113035,162.42979 C 46.42925,155.94353 28.27057,145.80493 31.136899,141.85004 c 1.747254,-1.7964 3.656743,-0.9539 5.078122,-2.13816 1.247279,-1.33636 1.247237,-1.95997 0,-1.87089 -4.355468,0.28172 -5.884592,-1.17586 -5.61266,-3.74177 -0.407321,-6.82179 5.669416,-7.15952 9.888972,-9.35443"
           id="path6875"
           inkscape:connector-curvature="0"
           sodipodi:nodetypes="cccccc" />
        <path
           style="fill:none;fill-opacity:1;stroke:#000000;stroke-width:1.60000002;stroke-linecap:round;stroke-linejoin:bevel;stroke-miterlimit:4;stroke-dasharray:none;stroke-dashoffset:0;stroke-opacity:1;paint-order:stroke fill markers"
           d="m 41.199405,122.65848 c -0.932178,-0.34308 -1.359037,0.2608 -2.740327,-0.75595 -2.316533,-0.8769 -4.836284,-19.33241 -1.039436,-22.584078 4.493599,-4.117751 12.146374,-0.221867 14.079614,-2.173365 6.562624,-6.990141 13.39063,-12.786064 21.450149,-13.040177 5.600419,0.519571 9.691284,3.045378 11.717261,8.315476"
           id="path6877"
           inkscape:connector-curvature="0"
           sodipodi:nodetypes="cccccc" />
      </g>
    </g>
    <path
       style="opacity:1;fill:#000000;fill-opacity:1;stroke:#000000;stroke-width:1.23635709"
       d=""
       id="path2528"
       inkscape:connector-curvature="0"
       transform="scale(0.26458333)" />
    <g
       id="g2568"
       style="filter:url(#filter2986)"
       transform="translate(4.1635471,2.7757013)">
      <path
         transform="scale(0.26458333)"
         inkscape:connector-curvature="0"
         id="path2526"
         d="m 329.76664,484.26284 c -1.52999,-0.31401 -2.75605,-0.94951 -2.72458,-1.41221 0.0315,-0.4627 3.62314,-4.72372 7.98148,-9.46893 l 7.92426,-8.62765 2.03053,4.85975 c 1.70635,4.08386 1.88262,12.21953 0.29565,13.6453 -0.83032,0.74598 -12.94317,1.53 -15.50734,1.00374 z"
         style="opacity:1;fill:#000000;fill-opacity:0.39215686;stroke:#000000;stroke-width:1.23635709" />
      <path
         transform="scale(0.26458333)"
         inkscape:connector-curvature="0"
         id="path2530"
         d="m 318.52879,469.58761 c -3.14045,-6.89255 -2.22816,-7.97815 6.70454,-7.97815 4.47665,0 7.9539,0.45124 7.72723,1.00276 -0.69416,1.68901 -10.52546,10.12445 -11.79981,10.12445 -0.65843,0 -1.84281,-1.41708 -2.63196,-3.14906 z"
         style="opacity:1;fill:#000000;fill-opacity:0.39215686;stroke:#000000;stroke-width:1.23635709" />
      <path
         transform="scale(0.26458333)"
         inkscape:connector-curvature="0"
         id="path2532"
         d="m 301.4028,476.31764 c -5.4665,-1.58136 -9.37239,-7.5316 -9.98624,-15.21307 -0.75973,-9.50697 0.91759,-12.40333 9.86763,-17.03923 6.80424,-3.52443 8.98002,-4.03056 17.45024,-4.0593 9.61177,-0.0326 9.70519,-0.002 13.90902,4.58535 2.42611,2.64735 4.23225,5.91931 4.23225,7.66705 v 3.04887 l -10.27563,-0.72516 c -10.23399,-0.72223 -10.29394,-0.70908 -14.79798,3.24552 -5.11383,4.49 -6.83313,10.26789 -4.79505,16.11431 1.44851,4.15519 1.08295,4.31015 -5.60424,2.37566 z"
         style="opacity:1;fill:#000000;fill-opacity:0.39215686;stroke:#000000;stroke-width:1.23635709" />
      <path
         transform="scale(0.26458333)"
         inkscape:connector-curvature="0"
         id="path2534"
         d="m 333.16662,576.29804 c 0,-9.27802 3.3121,-15.08539 13.99163,-24.53263 13.8751,-12.27409 22.45382,-22.17145 37.4222,-43.17438 10.61846,-14.89931 13.8071,-18.5012 18.87909,-21.32583 7.39512,-4.11838 13.77937,-11.09303 13.77937,-15.05363 0,-3.65445 -18.98684,-28.57276 -26.26089,-34.46475 -8.56891,-6.94084 -12.9084,-8.67402 -19.38012,-7.74036 -3.11729,0.44973 -7.17131,0.78306 -9.00893,0.74073 -2.86326,-0.066 -3.45763,0.5441 -4.15575,4.26544 -0.44805,2.38832 -1.02934,4.3424 -1.29175,4.3424 -0.26242,0 -3.69127,-2.36453 -7.61969,-5.25452 -3.92841,-2.88998 -9.3936,-6.26756 -12.14487,-7.50573 -4.11696,-1.85277 -5.69289,-3.65165 -8.90426,-10.16397 -2.14608,-4.35201 -5.93909,-10.16762 -8.42891,-12.92355 -4.08785,-4.52476 -4.41643,-5.39618 -3.38749,-8.98388 0.6267,-2.1852 2.32437,-4.56382 3.77259,-5.28584 4.30095,-2.14426 59.2495,-1.1483 68.69697,1.24515 23.1531,5.86568 39.44167,21.96979 47.30827,46.77254 5.58297,17.60265 3.63933,31.85442 -6.95888,51.02621 -15.77865,28.543 -37.26563,49.4826 -89.8177,87.5296 l -6.49088,4.69931 z"
         style="opacity:1;fill:#000000;fill-opacity:0.39215686;stroke:#000000;stroke-width:1.23635709" />
      <path
         transform="scale(0.26458333)"
         inkscape:connector-curvature="0"
         id="path2536"
         d="m 227.46391,561.4453 c -15.61164,-18.17226 -24.0498,-58.57156 -20.65909,-98.90938 2.18548,-25.99976 6.45047,-41.36091 13.45172,-48.44886 3.28797,-3.32869 12.09042,-7.99339 18.89901,-10.01519 3.01046,-0.89395 3.01993,-0.87212 0.88634,2.04441 -1.18614,1.6214 -3.32998,5.4324 -4.76409,8.46888 -2.36806,5.01398 -2.53088,6.8302 -1.77341,19.78171 0.45873,7.84346 1.32217,16.75965 1.91877,19.81374 1.38229,7.07624 0.27066,8.98096 -2.08176,3.56701 l -1.81385,-4.17448 -1.71833,4.80215 c -2.4536,6.85701 -4.08344,17.63802 -5.34348,35.3459 -1.07454,15.10086 -1.03234,15.54989 2.03335,21.63625 1.72186,3.41844 4.20721,7.74154 5.52299,9.60689 1.31578,1.86534 2.03444,3.97064 1.59701,4.6784 -0.43743,0.70778 -0.7387,9.33517 -0.66948,19.17198 0.0692,9.8368 -0.12107,17.88511 -0.42287,17.88511 -0.30179,0 -2.58007,-2.36454 -5.06283,-5.25452 z"
         style="opacity:1;fill:#000000;fill-opacity:0.39215686;stroke:#000000;stroke-width:1.23635709" />
      <path
         transform="scale(0.26458333)"
         inkscape:connector-curvature="0"
         id="path2538"
         d="m 292.36684,388.57663 c -4.41998,-1.21894 -9.32367,-2.25422 -10.89709,-2.30061 -2.75554,-0.0812 -2.67723,-0.346 2.1292,-7.19804 2.74449,-3.91253 8.36086,-10.44977 12.48084,-14.52719 l 7.49087,-7.41351 15.79049,-0.17081 c 8.68476,-0.0939 18.97134,-0.83115 22.85906,-1.63824 12.14966,-2.52226 18.3839,0.39836 32.98256,15.45167 7.53905,7.77385 7.80681,8.24055 4.32725,7.5424 -2.03999,-0.40931 -10.96698,-1.11224 -19.83775,-1.56208 -25.70812,-1.30364 -45.43547,2.66012 -53.11074,10.67138 -4.00599,4.18135 -3.3859,4.1314 -14.21469,1.14503 z"
         style="opacity:1;fill:#000000;fill-opacity:0.39215686;stroke:#000000;stroke-width:1.23635709" />
      <path
         transform="scale(0.26458333)"
         inkscape:connector-curvature="0"
         id="path2540"
         d="M 302.2577,561.05742 C 291.71775,552.55278 278.51444,540.66683 272.917,534.6442 l -10.17715,-10.95024 4.11489,-0.77196 c 3.4704,-0.65105 4.34217,-1.53056 5.56605,-5.6155 l 1.45116,-4.84354 2.93175,2.70038 c 9.67315,8.90971 14.49287,12.03477 20.57162,13.33843 6.98132,1.49722 16.88163,0.79556 27.40337,-1.94215 3.59337,-0.93499 12.67445,-2.2726 20.18017,-2.97248 7.50572,-0.69989 14.59932,-1.63805 15.76355,-2.0848 5.08929,-1.95295 0.99968,3.1549 -15.69896,19.6077 -16.15573,15.91787 -17.99893,18.17917 -19.78172,24.26873 -1.08128,3.6934 -1.96596,7.72702 -1.96596,8.96359 0,1.23657 -0.41727,2.2325 -0.92727,2.21318 -0.51,-0.0193 -9.55086,-6.99348 -20.0908,-15.49812 z"
         style="opacity:1;fill:#000000;fill-opacity:0.39215686;stroke:#000000;stroke-width:1.23635709" />
      <path
         transform="scale(0.26458333)"
         inkscape:connector-curvature="0"
         id="path2542"
         d="m 264.47781,512.47569 c -2.00094,-2.64944 -7.39351,-9.14314 -11.98349,-14.43044 -7.39488,-8.51833 -8.34385,-10.19026 -8.3317,-14.67912 l 0.0137,-5.06585 3.32521,4.32725 c 1.82886,2.37999 7.98254,9.13328 13.67484,15.00731 9.24777,9.54299 10.30731,11.11241 9.95193,14.74107 -0.55571,5.67419 -2.41942,5.70215 -6.6505,0.0998 z"
         style="opacity:1;fill:#000000;fill-opacity:0.39215686;stroke:#000000;stroke-width:1.23635709" />
      <path
         transform="scale(0.26458333)"
         inkscape:connector-curvature="0"
         id="path2544"
         d="m 176.89084,516.66055 c -11.72539,-4.82051 -19.32238,-13.22912 -22.30784,-24.69112 -1.74877,-6.71395 -1.69556,-7.46622 1.16931,-16.53336 3.4588,-10.9469 7.4171,-17.62163 16.6313,-28.04472 11.23687,-12.71112 14.10625,-22.75495 8.09291,-28.32793 -3.89406,-3.60889 -3.85938,-4.92832 0.31918,-12.14323 7.08957,-12.24121 26.92546,-29.54548 43.5715,-38.01055 14.9417,-7.59836 33.15306,-10.00653 37.69755,-4.98492 2.50547,2.76852 3.8264,12.45555 2.59413,19.0241 -0.67754,3.6116 -1.55782,4.55695 -5.40514,5.80468 -2.52769,0.81976 -6.14758,2.57937 -8.04421,3.91025 -1.89663,1.33088 -7.08127,3.17987 -11.52141,4.10887 -4.44014,0.929 -11.19348,3.37922 -15.0074,5.44493 -3.81393,2.06571 -7.92003,3.75584 -9.12466,3.75584 -4.45781,0 -12.82279,14.76057 -16.46545,29.05439 -3.16941,12.43679 -5.63023,38.45035 -5.67166,59.95574 -0.0516,26.77433 -1.0248,28.05072 -16.52811,21.67703 z"
         style="opacity:1;fill:#000000;fill-opacity:0.39215686;stroke:#000000;stroke-width:1.23635709" />
      <path
         transform="scale(0.26458333)"
         inkscape:connector-curvature="0"
         id="path2546"
         d="m 330.69391,679.84476 c -1.69999,-0.89813 -6.00253,-5.22387 -9.56118,-9.61277 -7.98262,-9.84496 -16.59922,-17.88953 -20.92197,-19.53304 -6.7357,-2.56091 -19.22657,0.52095 -35.55836,8.77326 l -15.1047,7.63227 -10.68147,-0.88976 c -10.32798,-0.86032 -11.05373,-1.1305 -21.93054,-8.16447 -9.96681,-6.44547 -11.58589,-8.01478 -14.20393,-13.7673 -7.13335,-15.67386 -11.73554,-39.10778 -11.74272,-59.79289 -0.002,-5.51529 -1.16664,-15.73088 -2.58828,-22.70132 -2.89141,-14.17693 -2.44874,-18.23112 3.37862,-30.94328 l 3.11717,-6.79996 2.8669,11.24439 c 3.15763,12.3847 6.47191,19.68991 12.12391,26.72306 3.8284,4.76393 17.45471,14.76807 26.22523,19.25399 5.53035,2.82865 12.5124,8.63892 22.77183,18.95011 3.79541,3.81455 9.40436,8.19117 12.46435,9.72581 3.05998,1.53465 6.39815,3.50582 7.41814,4.38038 2.49762,2.1415 14.32899,5.53993 19.28682,5.53993 6.29293,0 7.53467,0.89644 6.93178,5.00419 -0.83714,5.70379 1.6862,7.76675 8.51132,6.95842 3.16675,-0.37506 7.63615,-1.8271 9.93196,-3.22675 2.29583,-1.39966 5.00877,-2.54735 6.02876,-2.55043 1.02,-0.003 5.38174,-1.67424 9.69278,-3.71369 9.09572,-4.30298 8.9943,-4.27967 8.06333,-1.85356 -1.33343,3.47485 1.49023,1.86485 7.58921,-4.32725 3.34886,-3.39998 6.52702,-6.18178 7.06258,-6.18178 0.53556,0 0.97375,2.1857 0.97375,4.85711 0,6.02081 2.15488,8.27703 8.93908,9.35948 12.25443,1.95525 15.95096,3.35991 17.15145,6.51743 1.461,3.84274 0.33664,7.70219 -2.24386,7.70219 -1.0726,0 -3.12147,1.12991 -4.55302,2.51091 -1.43156,1.38101 -4.72566,4.25246 -7.3202,6.38102 -2.59456,2.12855 -8.10985,8.6486 -12.25618,14.48899 -8.50614,11.98144 -9.51027,12.96687 -16.4081,16.10239 -7.07577,3.21641 -11.90728,3.82695 -15.45446,1.95292 z"
         style="opacity:1;fill:#000000;fill-opacity:0.39215686;stroke:#000000;stroke-width:1.23635709" />
      <path
         transform="scale(0.26458333)"
         inkscape:connector-curvature="0"
         id="path2548"
         d="m 179.70064,596.76272 c -0.93326,-1.14531 -10.04225,-8.97878 -20.24219,-17.40771 -10.19995,-8.42894 -22.87665,-19.57353 -28.17045,-24.76577 -13.68169,-13.41921 -13.98486,-17.4433 -1.50926,-20.03323 7.1807,-1.4907 12.50845,-5.69312 13.81442,-10.89652 1.08896,-4.33876 -2.281,-6.41396 -10.4158,-6.41396 -6.51903,0 -11.15133,-1.50303 -12.95432,-4.20325 -1.52085,-2.27769 -1.05118,-12.93981 0.75607,-17.16362 2.49894,-5.84042 7.89148,-10.32854 16.72025,-13.91599 4.3009,-1.74761 8.06032,-2.93699 8.35425,-2.64306 0.29394,0.29394 -0.10762,3.08426 -0.89236,6.20071 -2.22965,8.85474 0.17446,16.67759 7.63347,24.83893 5.95902,6.52013 17.48267,13.41376 24.92723,14.91188 2.93341,0.59031 3.24415,1.03175 2.15665,3.06376 -1.71239,3.19962 -5.79854,21.22789 -6.80312,30.01558 -0.96234,8.41824 0.98384,19.05568 4.92055,26.8947 2.71671,5.4097 5.10542,13.59993 3.96647,13.59993 -0.31077,0 -1.32861,-0.93707 -2.26186,-2.08238 z"
         style="opacity:1;fill:#000000;fill-opacity:0.39215686;stroke:#000000;stroke-width:1.23635709" />
      <path
         transform="scale(0.26458333)"
         inkscape:connector-curvature="0"
         id="path2550"
         d="m 147.98416,458.0941 c -7.65412,-4.85698 -13.38779,-59.4345 -7.74856,-73.75696 4.19926,-10.66526 12.32162,-13.42129 36.09012,-12.24591 l 16.86726,0.83411 14.65984,-13.94827 c 16.83403,-16.01691 28.30923,-24.57059 40.62334,-30.28086 17.66842,-8.19315 31.46194,-8.82251 45.36949,-2.07009 9.85961,4.78706 11.50032,6.17254 12.61671,10.65404 0.49785,1.99851 2.01879,5.19758 3.37987,7.10905 2.33414,3.278 2.34702,3.47694 0.22688,3.50255 -5.60349,0.0677 -13.77344,5.53392 -23.53901,15.74916 l -10.2359,10.70721 v -5.87982 c 0,-10.1877 -7.10296,-14.42689 -24.10897,-14.38869 -6.45652,0.0145 -11.32346,0.96953 -19.16353,3.76043 -5.77997,2.05755 -13.43752,4.5009 -17.01677,5.42967 -9.24553,2.39911 -15.88392,6.67094 -24.4012,15.70231 -12.69654,13.46288 -25.34532,29.71294 -25.34532,32.5615 0,1.48899 1.11272,5.94144 2.47272,9.89432 1.35999,3.95289 2.47271,8.15049 2.47271,9.32801 0,1.17751 -2.36453,4.56767 -5.25452,7.53368 -2.88998,2.96601 -6.88681,8.87 -8.88183,13.11997 -3.53547,7.53159 -5.4862,8.96718 -9.08333,6.68459 z"
         style="opacity:1;fill:#000000;fill-opacity:0.39215686;stroke:#000000;stroke-width:1.23635709" />
    </g>
  </g>
  <g
     inkscape:groupmode="layer"
     id="layer2"
     inkscape:label="Layer 2"
     style="display:inline"
     transform="translate(-30.557288,-85.387083)" />
</svg>
